<?xml version="1.0" encoding="UTF-8" standalone="no"?>

<svg 
   xmlns:rdf="http://www.w3.org/1999/02/22-rdf-syntax-ns#"
   xmlns:svg="http://www.w3.org/2000/svg"
   xmlns="http://www.w3.org/2000/svg"
   xmlns:xlink="http://www.w3.org/1999/xlink"
   width="2460"
   height="1302.82204"
   viewBox="0 0 1230 651.41102"
 >

<image xlink:href="plane.svg" x="0" y="0" height="651.41102px" width="1230px" />

<path id="booking1" fill="none" d="M582.6604901382,135.4095969488L588.5904406356,140.9087445863" />)
<path id="booking2" fill="none" d="M960.3718885298,203.8880159572L594.3932869643,148.8729389913" />)
<path id="booking3" fill="none" d="M960.3718885298,203.8880159572L586.9429677858,142.0489460495" />)
<path id="booking4" fill="none" d="M960.3718885298,203.8880159572L579.8898378554,133.6814792378" />)
<path id="booking5" fill="none" d="M960.3718885298,203.8880159572L583.4958985315,133.3809190295" />)
<path id="booking6" fill="none" d="M960.3718885298,203.8880159572L583.4958985315,133.3809190295" />)
<path id="booking7" fill="none" d="M960.3718885298,203.8880159572L583.4958985315,133.3809190295" />)
<path id="booking8" fill="none" d="M960.3718885298,203.8880159572L579.8898378554,133.6814792378" />)
<path id="booking9" fill="none" d="M602.5051870327,167.5265133363L584.5300193429,142.232710034" />)
<path id="booking10" fill="none" d="M582.6604901382,135.4095969488L594.3932869643,148.8729389913" />)
<path id="booking11" fill="none" d="M995.4288949002,251.2921918398L590.6419130202,143.8684270025" />)
<path id="booking12" fill="none" d="M960.3718885298,203.8880159572L331.0105864881,189.3333129192" />)
<path id="booking13" fill="none" d="M960.3718885298,203.8880159572L331.0105864881,189.3333129192" />)
<path id="booking14" fill="none" d="M1062.700412574,422.6175895162L1125.6484662395,448.7003791209" />)
<path id="booking15" fill="none" d="M581.713657,188.6179565L641.8856539004,145.4360203891" />)
<path id="booking16" fill="none" d="M960.3718885298,203.8880159572L331.0105864881,189.3333129192" />)
<path id="booking17" fill="none" d="M960.3718885298,203.8880159572L331.0105864881,189.3333129192" />)
<path id="booking18" fill="none" d="M960.3718885298,203.8880159572L179.0064071925,210.3440283621" />)
<path id="booking19" fill="none" d="M885.3878523041,255.5986787587L594.3932869643,148.8729389913" />)
<path id="booking20" fill="none" d="M960.3718885298,203.8880159572L585.6540192966,149.084135121" />)
<path id="booking21" fill="none" d="M960.3718885298,203.8880159572L298.3492597071,211.2315600081" />)
<path id="booking22" fill="none" d="M960.3718885298,203.8880159572L585.6540192966,149.084135121" />)
<path id="booking23" fill="none" d="M960.3718885298,203.8880159572L298.3492597071,211.2315600081" />)
<path id="booking24" fill="none" d="M582.6604901382,135.4095969488L589.4311225509,145.7655287924" />)
<path id="booking25" fill="none" d="M960.3718885298,203.8880159572L179.0064071925,210.3440283621" />)
<path id="booking26" fill="none" d="M960.3718885298,203.8880159572L179.0064071925,210.3440283621" />)
<path id="booking27" fill="none" d="M960.3718885298,203.8880159572L589.4854092818,142.3176390174" />)
<path id="booking28" fill="none" d="M960.3718885298,203.8880159572L586.9429677858,142.0489460495" />)
<path id="booking29" fill="none" d="M960.3718885298,203.8880159572L179.0064071925,210.3440283621" />)
<path id="booking30" fill="none" d="M960.3718885298,203.8880159572L179.0064071925,210.3440283621" />)
<path id="booking31" fill="none" d="M960.3718885298,203.8880159572L179.0064071925,210.3440283621" />)
<path id="booking32" fill="none" d="M960.3718885298,203.8880159572L179.0064071925,210.3440283621" />)
<path id="booking33" fill="none" d="M960.3718885298,203.8880159572L179.0064071925,210.3440283621" />)
<path id="booking34" fill="none" d="M960.3718885298,203.8880159572L179.0064071925,210.3440283621" />)
<path id="booking35" fill="none" d="M960.3718885298,203.8880159572L179.0064071925,210.3440283621" />)
<path id="booking36" fill="none" d="M960.3718885298,203.8880159572L594.3932869643,148.8729389913" />)
<path id="booking37" fill="none" d="M960.3718885298,203.8880159572L589.3580438947,140.8771252225" />)
<path id="booking38" fill="none" d="M960.3718885298,203.8880159572L590.6419130202,143.8684270025" />)
<path id="booking39" fill="none" d="M663.902859638,158.9009153469L579.8898378554,133.6814792378" />)
<path id="booking40" fill="none" d="M960.3718885298,203.8880159572L594.3932869643,148.8729389913" />)
<path id="booking41" fill="none" d="M960.3718885298,203.8880159572L179.0064071925,210.3440283621" />)
<path id="booking42" fill="none" d="M960.3718885298,203.8880159572L594.3932869643,148.8729389913" />)
<path id="booking43" fill="none" d="M960.3718885298,203.8880159572L588.2067898035,145.5417165864" />)
<path id="booking44" fill="none" d="M1040.9854783061,203.8802303147L579.8898378554,133.6814792378" />)
<path id="booking45" fill="none" d="M960.3718885298,203.8880159572L586.9429677858,142.0489460495" />)
<path id="booking46" fill="none" d="M960.3718885298,203.8880159572L590.6419130202,143.8684270025" />)
<path id="booking47" fill="none" d="M960.3718885298,203.8880159572L594.3932869643,148.8729389913" />)
<path id="booking48" fill="none" d="M1040.9854783061,203.8802303147L586.9429677858,142.0489460495" />)
<path id="booking49" fill="none" d="M960.3718885298,203.8880159572L594.3932869643,148.8729389913" />)
<path id="booking50" fill="none" d="M960.3718885298,203.8880159572L588.9328228226,136.6766715569" />)
<path id="booking51" fill="none" d="M960.3718885298,203.8880159572L589.4854092818,142.3176390174" />)
<path id="booking52" fill="none" d="M960.3718885298,203.8880159572L579.8898378554,133.6814792378" />)
<path id="booking53" fill="none" d="M960.3718885298,203.8880159572L586.9429677858,142.0489460495" />)
<path id="booking54" fill="none" d="M960.3718885298,203.8880159572L589.4854092818,142.3176390174" />)
<path id="booking55" fill="none" d="M960.3718885298,203.8880159572L589.4854092818,142.3176390174" />)
<path id="booking56" fill="none" d="M960.3718885298,203.8880159572L589.4854092818,142.3176390174" />)
<path id="booking57" fill="none" d="M960.3718885298,203.8880159572L589.4854092818,142.3176390174" />)
<path id="booking58" fill="none" d="M960.3718885298,203.8880159572L589.4854092818,142.3176390174" />)
<path id="booking59" fill="none" d="M960.3718885298,203.8880159572L594.3932869643,148.8729389913" />)
<path id="booking60" fill="none" d="M960.3718885298,203.8880159572L594.3932869643,148.8729389913" />)
<path id="booking61" fill="none" d="M960.3718885298,203.8880159572L590.7787068467,144.9847333019" />)
<path id="booking62" fill="none" d="M960.3718885298,203.8880159572L594.3932869643,148.8729389913" />)
<path id="booking63" fill="none" d="M258.870185,197.7764L162.4667251945,175.0930037806" />)
<path id="booking64" fill="none" d="M960.3718885298,203.8880159572L162.4667251945,175.0930037806" />)
<path id="booking65" fill="none" d="M960.3718885298,203.8880159572L589.4854092818,142.3176390174" />)
<path id="booking66" fill="none" d="M960.3718885298,203.8880159572L589.4854092818,142.3176390174" />)
<path id="booking67" fill="none" d="M960.3718885298,203.8880159572L589.4854092818,142.3176390174" />)
<path id="booking68" fill="none" d="M960.3718885298,203.8880159572L579.8898378554,133.6814792378" />)

<image id="firehorse1" xlink:href="firehorse.gif" x="0" y="0" height="10px" width="10px" transform="scale (1,1)" />
<image id="firehorse2" xlink:href="firehorse.gif" x="0" y="0" height="10px" width="10px" transform="scale (1,1)" />
<image id="firehorse3" xlink:href="firehorse.gif" x="0" y="0" height="10px" width="10px" transform="scale (1,1)" />
<image id="firehorse4" xlink:href="firehorse.gif" x="0" y="0" height="10px" width="10px" transform="scale (1,1)" />
<image id="firehorse5" xlink:href="firehorse.gif" x="0" y="0" height="10px" width="10px" transform="scale (1,1)" />
<image id="firehorse6" xlink:href="firehorse.gif" x="0" y="0" height="10px" width="10px" transform="scale (1,1)" />
<image id="firehorse7" xlink:href="firehorse.gif" x="0" y="0" height="10px" width="10px" transform="scale (1,1)" />
<image id="firehorse8" xlink:href="firehorse.gif" x="0" y="0" height="10px" width="10px" transform="scale (1,1)" />
<image id="firehorse9" xlink:href="firehorse.gif" x="0" y="0" height="10px" width="10px" transform="scale (1,1)" />
<image id="firehorse10" xlink:href="firehorse.gif" x="0" y="0" height="10px" width="10px" transform="scale (1,1)" />
<image id="firehorse11" xlink:href="firehorse.gif" x="0" y="0" height="10px" width="10px" transform="scale (1,1)" />
<image id="firehorse12" xlink:href="firehorse.gif" x="0" y="0" height="10px" width="10px" transform="scale (1,1)" />
<image id="firehorse13" xlink:href="firehorse.gif" x="0" y="0" height="10px" width="10px" transform="scale (1,1)" />
<image id="firehorse14" xlink:href="firehorse.gif" x="0" y="0" height="10px" width="10px" transform="scale (1,1)" />
<image id="firehorse15" xlink:href="firehorse.gif" x="0" y="0" height="10px" width="10px" transform="scale (1,1)" />
<image id="firehorse16" xlink:href="firehorse.gif" x="0" y="0" height="10px" width="10px" transform="scale (1,1)" />
<image id="firehorse17" xlink:href="firehorse.gif" x="0" y="0" height="10px" width="10px" transform="scale (1,1)" />
<image id="firehorse18" xlink:href="firehorse.gif" x="0" y="0" height="10px" width="10px" transform="scale (1,1)" />
<image id="firehorse19" xlink:href="firehorse.gif" x="0" y="0" height="10px" width="10px" transform="scale (1,1)" />
<image id="firehorse20" xlink:href="firehorse.gif" x="0" y="0" height="10px" width="10px" transform="scale (1,1)" />
<image id="firehorse21" xlink:href="firehorse.gif" x="0" y="0" height="10px" width="10px" transform="scale (1,1)" />
<image id="firehorse22" xlink:href="firehorse.gif" x="0" y="0" height="10px" width="10px" transform="scale (1,1)" />
<image id="firehorse23" xlink:href="firehorse.gif" x="0" y="0" height="10px" width="10px" transform="scale (1,1)" />
<image id="firehorse24" xlink:href="firehorse.gif" x="0" y="0" height="10px" width="10px" transform="scale (1,1)" />
<image id="firehorse25" xlink:href="firehorse.gif" x="0" y="0" height="10px" width="10px" transform="scale (1,1)" />
<image id="firehorse26" xlink:href="firehorse.gif" x="0" y="0" height="10px" width="10px" transform="scale (1,1)" />
<image id="firehorse27" xlink:href="firehorse.gif" x="0" y="0" height="10px" width="10px" transform="scale (1,1)" />
<image id="firehorse28" xlink:href="firehorse.gif" x="0" y="0" height="10px" width="10px" transform="scale (1,1)" />
<image id="firehorse29" xlink:href="firehorse.gif" x="0" y="0" height="10px" width="10px" transform="scale (1,1)" />
<image id="firehorse30" xlink:href="firehorse.gif" x="0" y="0" height="10px" width="10px" transform="scale (1,1)" />
<image id="firehorse31" xlink:href="firehorse.gif" x="0" y="0" height="10px" width="10px" transform="scale (1,1)" />
<image id="firehorse32" xlink:href="firehorse.gif" x="0" y="0" height="10px" width="10px" transform="scale (1,1)" />
<image id="firehorse33" xlink:href="firehorse.gif" x="0" y="0" height="10px" width="10px" transform="scale (1,1)" />
<image id="firehorse34" xlink:href="firehorse.gif" x="0" y="0" height="10px" width="10px" transform="scale (1,1)" />
<image id="firehorse35" xlink:href="firehorse.gif" x="0" y="0" height="10px" width="10px" transform="scale (1,1)" />
<image id="firehorse36" xlink:href="firehorse.gif" x="0" y="0" height="10px" width="10px" transform="scale (1,1)" />
<image id="firehorse37" xlink:href="firehorse.gif" x="0" y="0" height="10px" width="10px" transform="scale (1,1)" />
<image id="firehorse38" xlink:href="firehorse.gif" x="0" y="0" height="10px" width="10px" transform="scale (1,1)" />
<image id="firehorse39" xlink:href="firehorse.gif" x="0" y="0" height="10px" width="10px" transform="scale (1,1)" />
<image id="firehorse40" xlink:href="firehorse.gif" x="0" y="0" height="10px" width="10px" transform="scale (1,1)" />
<image id="firehorse41" xlink:href="firehorse.gif" x="0" y="0" height="10px" width="10px" transform="scale (1,1)" />
<image id="firehorse42" xlink:href="firehorse.gif" x="0" y="0" height="10px" width="10px" transform="scale (1,1)" />
<image id="firehorse43" xlink:href="firehorse.gif" x="0" y="0" height="10px" width="10px" transform="scale (1,1)" />
<image id="firehorse44" xlink:href="firehorse.gif" x="0" y="0" height="10px" width="10px" transform="scale (1,1)" />
<image id="firehorse45" xlink:href="firehorse.gif" x="0" y="0" height="10px" width="10px" transform="scale (1,1)" />
<image id="firehorse46" xlink:href="firehorse.gif" x="0" y="0" height="10px" width="10px" transform="scale (1,1)" />
<image id="firehorse47" xlink:href="firehorse.gif" x="0" y="0" height="10px" width="10px" transform="scale (1,1)" />
<image id="firehorse48" xlink:href="firehorse.gif" x="0" y="0" height="10px" width="10px" transform="scale (1,1)" />
<image id="firehorse49" xlink:href="firehorse.gif" x="0" y="0" height="10px" width="10px" transform="scale (1,1)" />
<image id="firehorse50" xlink:href="firehorse.gif" x="0" y="0" height="10px" width="10px" transform="scale (1,1)" />
<image id="firehorse51" xlink:href="firehorse.gif" x="0" y="0" height="10px" width="10px" transform="scale (1,1)" />
<image id="firehorse52" xlink:href="firehorse.gif" x="0" y="0" height="10px" width="10px" transform="scale (1,1)" />
<image id="firehorse53" xlink:href="firehorse.gif" x="0" y="0" height="10px" width="10px" transform="scale (1,1)" />
<image id="firehorse54" xlink:href="firehorse.gif" x="0" y="0" height="10px" width="10px" transform="scale (1,1)" />
<image id="firehorse55" xlink:href="firehorse.gif" x="0" y="0" height="10px" width="10px" transform="scale (1,1)" />
<image id="firehorse56" xlink:href="firehorse.gif" x="0" y="0" height="10px" width="10px" transform="scale (1,1)" />
<image id="firehorse57" xlink:href="firehorse.gif" x="0" y="0" height="10px" width="10px" transform="scale (1,1)" />
<image id="firehorse58" xlink:href="firehorse.gif" x="0" y="0" height="10px" width="10px" transform="scale (1,1)" />
<image id="firehorse59" xlink:href="firehorse.gif" x="0" y="0" height="10px" width="10px" transform="scale (1,1)" />
<image id="firehorse60" xlink:href="firehorse.gif" x="0" y="0" height="10px" width="10px" transform="scale (1,1)" />
<image id="firehorse61" xlink:href="firehorse.gif" x="0" y="0" height="10px" width="10px" transform="scale (1,1)" />
<image id="firehorse62" xlink:href="firehorse.gif" x="0" y="0" height="10px" width="10px" transform="scale (1,1)" />
<image id="firehorse63" xlink:href="firehorse.gif" x="0" y="0" height="10px" width="10px" transform="scale (1,1)" />
<image id="firehorse64" xlink:href="firehorse.gif" x="0" y="0" height="10px" width="10px" transform="scale (1,1)" />
<image id="firehorse65" xlink:href="firehorse.gif" x="0" y="0" height="10px" width="10px" transform="scale (1,1)" />
<image id="firehorse66" xlink:href="firehorse.gif" x="0" y="0" height="10px" width="10px" transform="scale (1,1)" />
<image id="firehorse67" xlink:href="firehorse.gif" x="0" y="0" height="10px" width="10px" transform="scale (1,1)" />
<image id="firehorse68" xlink:href="firehorse.gif" x="0" y="0" height="10px" width="10px" transform="scale (1,1)" />


<animateMotion xlink:href="#firehorse1" dur="10s" begin="0.2s" fill="freeze" repeatCount="1" rotate="auto"><mpath xlink:href="#booking2" /> </animateMotion>
<animateMotion xlink:href="#firehorse2" dur="10s" begin="0.4s" fill="freeze" repeatCount="1" rotate="auto"><mpath xlink:href="#booking3" /> </animateMotion>
<animateMotion xlink:href="#firehorse3" dur="10s" begin="0.6s" fill="freeze" repeatCount="1" rotate="auto"><mpath xlink:href="#booking4" /> </animateMotion>
<animateMotion xlink:href="#firehorse4" dur="10s" begin="0.8s" fill="freeze" repeatCount="1" rotate="auto"><mpath xlink:href="#booking5" /> </animateMotion>
<animateMotion xlink:href="#firehorse5" dur="10s" begin="1s" fill="freeze" repeatCount="1" rotate="auto"><mpath xlink:href="#booking6" /> </animateMotion>
<animateMotion xlink:href="#firehorse6" dur="10s" begin="1.2s" fill="freeze" repeatCount="1" rotate="auto"><mpath xlink:href="#booking7" /> </animateMotion>
<animateMotion xlink:href="#firehorse7" dur="10s" begin="1.4s" fill="freeze" repeatCount="1" rotate="auto"><mpath xlink:href="#booking8" /> </animateMotion>
<animateMotion xlink:href="#firehorse8" dur="10s" begin="1.6s" fill="freeze" repeatCount="1" rotate="auto"><mpath xlink:href="#booking9" /> </animateMotion>
<animateMotion xlink:href="#firehorse9" dur="10s" begin="1.8s" fill="freeze" repeatCount="1" rotate="auto"><mpath xlink:href="#booking10" /> </animateMotion>
<animateMotion xlink:href="#firehorse10" dur="10s" begin="2s" fill="freeze" repeatCount="1" rotate="auto"><mpath xlink:href="#booking11" /> </animateMotion>
<animateMotion xlink:href="#firehorse11" dur="10s" begin="2.2s" fill="freeze" repeatCount="1" rotate="auto"><mpath xlink:href="#booking12" /> </animateMotion>
<animateMotion xlink:href="#firehorse12" dur="10s" begin="2.4s" fill="freeze" repeatCount="1" rotate="auto"><mpath xlink:href="#booking13" /> </animateMotion>
<animateMotion xlink:href="#firehorse13" dur="10s" begin="2.6s" fill="freeze" repeatCount="1" rotate="auto"><mpath xlink:href="#booking14" /> </animateMotion>
<animateMotion xlink:href="#firehorse14" dur="10s" begin="2.8s" fill="freeze" repeatCount="1" rotate="auto"><mpath xlink:href="#booking15" /> </animateMotion>
<animateMotion xlink:href="#firehorse15" dur="10s" begin="3s" fill="freeze" repeatCount="1" rotate="auto"><mpath xlink:href="#booking16" /> </animateMotion>
<animateMotion xlink:href="#firehorse16" dur="10s" begin="3.2s" fill="freeze" repeatCount="1" rotate="auto"><mpath xlink:href="#booking17" /> </animateMotion>
<animateMotion xlink:href="#firehorse17" dur="10s" begin="3.4s" fill="freeze" repeatCount="1" rotate="auto"><mpath xlink:href="#booking18" /> </animateMotion>
<animateMotion xlink:href="#firehorse18" dur="10s" begin="3.6s" fill="freeze" repeatCount="1" rotate="auto"><mpath xlink:href="#booking19" /> </animateMotion>
<animateMotion xlink:href="#firehorse19" dur="10s" begin="3.8s" fill="freeze" repeatCount="1" rotate="auto"><mpath xlink:href="#booking20" /> </animateMotion>
<animateMotion xlink:href="#firehorse20" dur="10s" begin="4s" fill="freeze" repeatCount="1" rotate="auto"><mpath xlink:href="#booking21" /> </animateMotion>
<animateMotion xlink:href="#firehorse21" dur="10s" begin="4.2s" fill="freeze" repeatCount="1" rotate="auto"><mpath xlink:href="#booking22" /> </animateMotion>
<animateMotion xlink:href="#firehorse22" dur="10s" begin="4.4s" fill="freeze" repeatCount="1" rotate="auto"><mpath xlink:href="#booking23" /> </animateMotion>
<animateMotion xlink:href="#firehorse23" dur="10s" begin="4.6s" fill="freeze" repeatCount="1" rotate="auto"><mpath xlink:href="#booking24" /> </animateMotion>
<animateMotion xlink:href="#firehorse24" dur="10s" begin="4.8s" fill="freeze" repeatCount="1" rotate="auto"><mpath xlink:href="#booking25" /> </animateMotion>
<animateMotion xlink:href="#firehorse25" dur="10s" begin="5s" fill="freeze" repeatCount="1" rotate="auto"><mpath xlink:href="#booking26" /> </animateMotion>
<animateMotion xlink:href="#firehorse26" dur="10s" begin="5.2s" fill="freeze" repeatCount="1" rotate="auto"><mpath xlink:href="#booking27" /> </animateMotion>
<animateMotion xlink:href="#firehorse27" dur="10s" begin="5.4s" fill="freeze" repeatCount="1" rotate="auto"><mpath xlink:href="#booking28" /> </animateMotion>
<animateMotion xlink:href="#firehorse28" dur="10s" begin="5.6s" fill="freeze" repeatCount="1" rotate="auto"><mpath xlink:href="#booking29" /> </animateMotion>
<animateMotion xlink:href="#firehorse29" dur="10s" begin="5.8s" fill="freeze" repeatCount="1" rotate="auto"><mpath xlink:href="#booking30" /> </animateMotion>
<animateMotion xlink:href="#firehorse30" dur="10s" begin="6s" fill="freeze" repeatCount="1" rotate="auto"><mpath xlink:href="#booking31" /> </animateMotion>
<animateMotion xlink:href="#firehorse31" dur="10s" begin="6.2s" fill="freeze" repeatCount="1" rotate="auto"><mpath xlink:href="#booking32" /> </animateMotion>
<animateMotion xlink:href="#firehorse32" dur="10s" begin="6.4s" fill="freeze" repeatCount="1" rotate="auto"><mpath xlink:href="#booking33" /> </animateMotion>
<animateMotion xlink:href="#firehorse33" dur="10s" begin="6.6s" fill="freeze" repeatCount="1" rotate="auto"><mpath xlink:href="#booking34" /> </animateMotion>
<animateMotion xlink:href="#firehorse34" dur="10s" begin="6.8s" fill="freeze" repeatCount="1" rotate="auto"><mpath xlink:href="#booking35" /> </animateMotion>
<animateMotion xlink:href="#firehorse35" dur="10s" begin="7s" fill="freeze" repeatCount="1" rotate="auto"><mpath xlink:href="#booking36" /> </animateMotion>
<animateMotion xlink:href="#firehorse36" dur="10s" begin="7.2s" fill="freeze" repeatCount="1" rotate="auto"><mpath xlink:href="#booking37" /> </animateMotion>
<animateMotion xlink:href="#firehorse37" dur="10s" begin="7.4s" fill="freeze" repeatCount="1" rotate="auto"><mpath xlink:href="#booking38" /> </animateMotion>
<animateMotion xlink:href="#firehorse38" dur="10s" begin="7.6s" fill="freeze" repeatCount="1" rotate="auto"><mpath xlink:href="#booking39" /> </animateMotion>
<animateMotion xlink:href="#firehorse39" dur="10s" begin="7.8s" fill="freeze" repeatCount="1" rotate="auto"><mpath xlink:href="#booking40" /> </animateMotion>
<animateMotion xlink:href="#firehorse40" dur="10s" begin="8s" fill="freeze" repeatCount="1" rotate="auto"><mpath xlink:href="#booking41" /> </animateMotion>
<animateMotion xlink:href="#firehorse41" dur="10s" begin="8.2s" fill="freeze" repeatCount="1" rotate="auto"><mpath xlink:href="#booking42" /> </animateMotion>
<animateMotion xlink:href="#firehorse42" dur="10s" begin="8.4s" fill="freeze" repeatCount="1" rotate="auto"><mpath xlink:href="#booking43" /> </animateMotion>
<animateMotion xlink:href="#firehorse43" dur="10s" begin="8.6s" fill="freeze" repeatCount="1" rotate="auto"><mpath xlink:href="#booking44" /> </animateMotion>
<animateMotion xlink:href="#firehorse44" dur="10s" begin="8.8s" fill="freeze" repeatCount="1" rotate="auto"><mpath xlink:href="#booking45" /> </animateMotion>
<animateMotion xlink:href="#firehorse45" dur="10s" begin="9s" fill="freeze" repeatCount="1" rotate="auto"><mpath xlink:href="#booking46" /> </animateMotion>
<animateMotion xlink:href="#firehorse46" dur="10s" begin="9.2s" fill="freeze" repeatCount="1" rotate="auto"><mpath xlink:href="#booking47" /> </animateMotion>
<animateMotion xlink:href="#firehorse47" dur="10s" begin="9.4s" fill="freeze" repeatCount="1" rotate="auto"><mpath xlink:href="#booking48" /> </animateMotion>
<animateMotion xlink:href="#firehorse48" dur="10s" begin="9.6s" fill="freeze" repeatCount="1" rotate="auto"><mpath xlink:href="#booking49" /> </animateMotion>
<animateMotion xlink:href="#firehorse49" dur="10s" begin="9.8s" fill="freeze" repeatCount="1" rotate="auto"><mpath xlink:href="#booking50" /> </animateMotion>
<animateMotion xlink:href="#firehorse50" dur="10s" begin="10s" fill="freeze" repeatCount="1" rotate="auto"><mpath xlink:href="#booking51" /> </animateMotion>
<animateMotion xlink:href="#firehorse51" dur="10s" begin="10.2s" fill="freeze" repeatCount="1" rotate="auto"><mpath xlink:href="#booking52" /> </animateMotion>
<animateMotion xlink:href="#firehorse52" dur="10s" begin="10.4s" fill="freeze" repeatCount="1" rotate="auto"><mpath xlink:href="#booking53" /> </animateMotion>
<animateMotion xlink:href="#firehorse53" dur="10s" begin="10.6s" fill="freeze" repeatCount="1" rotate="auto"><mpath xlink:href="#booking54" /> </animateMotion>
<animateMotion xlink:href="#firehorse54" dur="10s" begin="10.8s" fill="freeze" repeatCount="1" rotate="auto"><mpath xlink:href="#booking55" /> </animateMotion>
<animateMotion xlink:href="#firehorse55" dur="10s" begin="11s" fill="freeze" repeatCount="1" rotate="auto"><mpath xlink:href="#booking56" /> </animateMotion>
<animateMotion xlink:href="#firehorse56" dur="10s" begin="11.2s" fill="freeze" repeatCount="1" rotate="auto"><mpath xlink:href="#booking57" /> </animateMotion>
<animateMotion xlink:href="#firehorse57" dur="10s" begin="11.4s" fill="freeze" repeatCount="1" rotate="auto"><mpath xlink:href="#booking58" /> </animateMotion>
<animateMotion xlink:href="#firehorse58" dur="10s" begin="11.6s" fill="freeze" repeatCount="1" rotate="auto"><mpath xlink:href="#booking59" /> </animateMotion>
<animateMotion xlink:href="#firehorse59" dur="10s" begin="11.8s" fill="freeze" repeatCount="1" rotate="auto"><mpath xlink:href="#booking60" /> </animateMotion>
<animateMotion xlink:href="#firehorse60" dur="10s" begin="12s" fill="freeze" repeatCount="1" rotate="auto"><mpath xlink:href="#booking61" /> </animateMotion>
<animateMotion xlink:href="#firehorse61" dur="10s" begin="12.2s" fill="freeze" repeatCount="1" rotate="auto"><mpath xlink:href="#booking62" /> </animateMotion>
<animateMotion xlink:href="#firehorse62" dur="10s" begin="12.4s" fill="freeze" repeatCount="1" rotate="auto"><mpath xlink:href="#booking63" /> </animateMotion>
<animateMotion xlink:href="#firehorse63" dur="10s" begin="12.6s" fill="freeze" repeatCount="1" rotate="auto"><mpath xlink:href="#booking64" /> </animateMotion>
<animateMotion xlink:href="#firehorse64" dur="10s" begin="12.8s" fill="freeze" repeatCount="1" rotate="auto"><mpath xlink:href="#booking65" /> </animateMotion>
<animateMotion xlink:href="#firehorse65" dur="10s" begin="13s" fill="freeze" repeatCount="1" rotate="auto"><mpath xlink:href="#booking66" /> </animateMotion>
<animateMotion xlink:href="#firehorse66" dur="10s" begin="13.2s" fill="freeze" repeatCount="1" rotate="auto"><mpath xlink:href="#booking67" /> </animateMotion>
<animateMotion xlink:href="#firehorse67" dur="10s" begin="13.4s" fill="freeze" repeatCount="1" rotate="auto"><mpath xlink:href="#booking68" /> </animateMotion>
<animateMotion xlink:href="#firehorse68" dur="10s" begin="13.6s" fill="freeze" repeatCount="1" rotate="auto"><mpath xlink:href="#booking" /> </animateMotion>



</svg>


